<svg width="13" height="12" viewBox="0 0 13 12" fill="none" xmlns="http://www.w3.org/2000/svg">
<path d="M5.90922 0.57143C6.41931 0.57143 6.91438 0.634156 7.38653 0.751676L7.09107 1.85826C6.71335 1.76425 6.31732 1.71429 5.90922 1.71429C3.29838 1.71429 1.18186 3.761 1.18185 6.28573C1.18185 7.04824 1.37419 7.78138 1.73699 8.43749L1.94358 8.81081L1.55637 10.495L3.29797 10.1205L3.68404 10.3203C4.36251 10.6711 5.1207 10.8571 5.90922 10.8571C8.5201 10.8571 10.6366 8.81046 10.6366 6.28573C10.6366 6.10121 10.6251 5.91927 10.6032 5.74053L11.7769 5.60544C11.8043 5.82853 11.8184 6.05556 11.8184 6.28573C11.8184 9.44161 9.17277 12 5.90922 12C4.90318 12 3.95578 11.7569 3.12658 11.3281L0 12L0.694795 8.97658C0.251384 8.17469 0 7.25858 0 6.28573C1.18185e-05 3.12981 2.64566 0.57143 5.90922 0.57143ZM10.3585 0.182483C10.4628 -0.0608238 10.8105 -0.0608312 10.9148 0.182483L11.0642 0.531813C11.3194 1.1277 11.7957 1.60353 12.3944 1.86105L12.8179 2.04353C13.0607 2.14792 13.0607 2.48936 12.8179 2.59375L12.3695 2.78683C11.7859 3.03785 11.3182 3.49684 11.0585 4.0731L10.9124 4.3962C10.8058 4.63286 10.4674 4.63286 10.3608 4.3962L10.2147 4.0731C9.95504 3.49683 9.48732 3.03785 8.90367 2.78683L8.45468 2.59375C8.21229 2.48927 8.21229 2.14799 8.45468 2.04353L8.87885 1.86105C9.47745 1.60353 9.95379 1.1277 10.209 0.531813L10.3585 0.182483Z" fill="white" fill-opacity="0.8"/>
</svg>
